<svg width="43" height="53" viewBox="0 0 43 53" fill="none" xmlns="http://www.w3.org/2000/svg">
<path d="M21.5 0C9.62932 0 0 9.49773 0 21.1857C0 33.567 12.2672 45.4697 21.085 52.8487C21.2001 52.9463 21.3475 53 21.5 53C21.6525 53 21.7999 52.9463 21.915 52.8487C30.733 45.4696 43 33.5666 43 21.1857C43 9.49811 33.3707 0 21.5 0ZM21.5 1.23262C32.6791 1.23262 41.7353 10.1565 41.7353 21.1857C41.7353 32.5872 30.2015 44.2007 21.5 51.5391C12.798 44.2005 1.26471 32.5868 1.26471 21.1857C1.26471 10.1569 10.3209 1.23262 21.5 1.23262ZM21.5 9.86099C15.2212 9.86099 10.1176 14.8351 10.1176 20.9546C10.1176 27.0742 15.2212 32.0482 21.5 32.0482C27.7788 32.0482 32.8824 27.0742 32.8824 20.9546C32.8824 14.8351 27.7788 9.86099 21.5 9.86099ZM21.5 11.0936C27.0953 11.0936 31.6176 15.5012 31.6176 20.9546C31.6176 26.408 27.0953 30.8156 21.5 30.8156C15.9047 30.8156 11.3824 26.408 11.3824 20.9546C11.3824 15.5012 15.9047 11.0936 21.5 11.0936Z" fill="#0D398C"/>
<path fill-rule="evenodd" clip-rule="evenodd" d="M21.5 1.23262C32.6791 1.23262 41.7353 10.1565 41.7353 21.1857C41.7353 32.5872 30.2015 44.2007 21.5 51.5391C12.798 44.2005 1.26471 32.5868 1.26471 21.1857C1.26471 10.1569 10.3209 1.23262 21.5 1.23262ZM10.1176 20.9546C10.1176 14.8351 15.2212 9.86099 21.5 9.86099C27.7788 9.86099 32.8824 14.8351 32.8824 20.9546C32.8824 27.0742 27.7788 32.0482 21.5 32.0482C15.2212 32.0482 10.1176 27.0742 10.1176 20.9546Z" fill="#0D398C"/>
</svg>
