<svg width="60" height="60" viewBox="0 0 60 60" fill="none" xmlns="http://www.w3.org/2000/svg">
<path d="M57.983 26.3076V26.3072C57.8932 25.4504 57.4492 24.6606 56.7653 24.1374L53.6349 21.7002L54.8115 17.8179C55.0625 16.9896 54.9584 16.0845 54.5258 15.3342C54.0927 14.5844 53.3609 14.0418 52.5179 13.8446L48.5798 12.9252L48.0771 8.9128C47.9692 8.05342 47.506 7.26874 46.8061 6.761C46.1053 6.25117 45.2153 6.05269 44.3656 6.21634L40.3939 6.97794L38.3021 3.51651C37.4696 2.13891 35.7214 1.61858 34.2368 2.30508C34.1323 2.35333 34.0316 2.41124 33.9439 2.47334L30.4968 4.8744L27.178 2.56272C26.4676 2.06841 25.5751 1.8884 24.7283 2.06799C23.8815 2.24759 23.1388 2.77631 22.691 3.51735L20.6001 6.97836L16.628 6.21634C15.7774 6.05353 14.8882 6.252 14.1887 6.76058C13.488 7.26958 13.0247 8.05426 12.9173 8.9128L12.4146 12.9256L8.24945 13.8979L8.05391 13.9616L7.98174 13.9931C6.46859 14.6549 5.7116 16.2637 6.18241 17.8179L7.3586 21.7002L4.09397 24.2398L3.90473 24.4043L3.85143 24.4626C2.75581 25.6593 2.71301 27.4696 3.74947 28.6798L6.30536 31.7362L4.23371 35.4956L4.15104 35.6836L4.12712 35.7537C3.61057 37.2974 4.31427 38.9751 5.76363 39.6553L9.42438 41.3732L9.08155 45.4024C9.00812 46.2655 9.2985 47.1295 9.87757 47.7724C10.4566 48.4156 11.2854 48.7946 12.1515 48.8122L16.1945 48.8928L17.5205 52.7125C17.8042 53.5308 18.4206 54.2022 19.2111 54.5538C20.0017 54.9059 20.9127 54.9151 21.7116 54.579L25.4383 53.0084L28.3634 56.1299L28.5166 56.2663L28.5758 56.3103C29.1536 56.7371 29.8287 56.9461 30.4976 56.9461C31.344 56.9461 32.1798 56.6112 32.7912 55.9587L35.5565 53.0084L39.2836 54.5794C40.0808 54.9151 40.9914 54.9059 41.782 54.5542C42.5734 54.2022 43.1898 53.5308 43.4734 52.713L44.7999 48.8928L49.0766 48.8076L49.2797 48.7853L49.3527 48.7706C50.9473 48.4454 52.0479 46.9973 51.9124 45.4028L51.57 41.3732L55.2311 39.6553C56.0146 39.2877 56.6176 38.6046 56.8853 37.7808C57.1526 36.9576 57.0666 36.0503 56.6486 35.2921L54.689 31.7362L57.2453 28.6798C57.8038 28.0272 58.0728 27.1637 57.983 26.3076ZM51.6405 30.354C51.134 30.952 51.0476 31.8118 51.4265 32.4987L53.7818 36.7729L49.3636 38.8463C48.6473 39.1828 48.2114 39.9385 48.2781 40.727L48.6914 45.5895L43.8121 45.6869C43.0211 45.7028 42.3149 46.2156 42.0556 46.9634L40.4551 51.5737L35.9585 49.6783C35.2292 49.3711 34.3757 49.552 33.834 50.1298L30.4968 53.6907L27.1595 50.1294C26.7941 49.7391 26.2859 49.5302 25.7698 49.5302C25.5218 49.5302 25.2721 49.5784 25.0359 49.6783L20.5384 51.5737L18.9384 46.9646C18.6795 46.2164 17.9733 45.7028 17.1814 45.6869L12.3017 45.5895L12.715 40.727C12.7822 39.9385 12.3458 39.1828 11.6295 38.8463L7.21174 36.7729L9.56705 32.4991C9.94639 31.8114 9.85953 30.952 9.35263 30.3536L6.25249 26.6463L10.0509 23.6913C10.6727 23.2117 10.9371 22.3876 10.7088 21.6365L9.29388 16.9661L14.0469 15.8558C14.8169 15.6758 15.4006 15.0279 15.4996 14.2424L16.1064 9.39998L20.9001 10.3194C21.6772 10.4679 22.4737 10.1129 22.8832 9.43607L25.4068 5.25919L29.4112 8.04797C30.0608 8.50032 30.9336 8.50074 31.5827 8.04797L35.5872 5.25877L38.1112 9.43481C38.5199 10.1125 39.318 10.4679 40.0951 10.3189L44.888 9.39956L45.4948 14.2415C45.5929 15.0266 46.1766 15.6754 46.9479 15.8558L51.7005 16.9657L50.2851 21.636C50.0573 22.3888 50.322 23.2125 50.9439 23.6918L54.7406 26.648L51.6405 30.354Z" fill="#0E398C"/>
<circle cx="30.5" cy="29.5" r="11.5" fill="#0FA0D9"/>
<path d="M30.668 15.7803C23.1161 15.7803 16.972 21.9239 16.972 29.4762C16.972 37.0281 23.1161 43.1721 30.668 43.1721C38.2202 43.1721 44.3643 37.0281 44.3643 29.4762C44.3643 21.9239 38.2198 15.7803 30.668 15.7803ZM30.668 39.9469C24.8944 39.9469 20.1968 35.2497 20.1968 29.4762C20.1968 23.7022 24.8944 19.005 30.668 19.005C36.4419 19.005 41.1391 23.7022 41.1391 29.4762C41.1391 35.2497 36.4419 39.9469 30.668 39.9469Z" fill="#0E398C"/>
<path d="M34.6048 25.2237L28.2429 31.5851L26.5166 29.8584C25.8868 29.229 24.8659 29.229 24.2364 29.8584C23.6066 30.4883 23.6066 31.5092 24.2364 32.139L27.1028 35.0054C27.4175 35.3206 27.8305 35.4779 28.2429 35.4779C28.6554 35.4779 29.0683 35.3206 29.383 35.0054L36.885 27.5039C37.5144 26.8741 37.5144 25.8532 36.885 25.2237C36.2551 24.5939 35.2342 24.5939 34.6048 25.2237Z" fill="#0E398C"/>
</svg>
