<svg width="60" height="60" viewBox="0 0 60 60" fill="none" xmlns="http://www.w3.org/2000/svg">
<path d="M9.59609 42.5886C9.07087 42.0636 8.21926 42.0636 7.69393 42.5886L4.93164 45.3509C4.40641 45.8761 4.40641 46.7277 4.93164 47.253C5.19425 47.5155 5.53846 47.647 5.88266 47.647C6.22698 47.647 6.57129 47.5156 6.8338 47.253L9.59609 44.4907C10.1213 43.9655 10.1213 43.1139 9.59609 42.5886Z" fill="#0E398C"/>
<path d="M13.5033 46.4958C12.9783 45.9708 12.1265 45.9708 11.6014 46.4958L2.39343 55.7039C1.86821 56.2291 1.86821 57.0807 2.39343 57.606C2.65593 57.8685 3.00025 58 3.34445 58C3.68866 58 4.03287 57.8686 4.29548 57.606L13.5033 48.398C14.0286 47.8726 14.0285 47.021 13.5033 46.4958Z" fill="#0E398C"/>
<path d="M17.4107 50.4034C16.8854 49.8781 16.0339 49.878 15.5088 50.4033L10.9048 55.0072C10.3796 55.5325 10.3795 56.3841 10.9048 56.9094C11.1674 57.1719 11.5116 57.3034 11.8558 57.3034C12.2001 57.3034 12.5443 57.172 12.8069 56.9094L17.4108 52.3056C17.9358 51.7803 17.9361 50.9287 17.4107 50.4034Z" fill="#0E398C"/>
<circle cx="37" cy="23" r="7" fill="#0FA0D9"/>
<path d="M42.7746 17.2254C41.2083 15.6591 39.1257 14.7964 36.9105 14.7964C34.6952 14.7964 32.6127 15.659 31.0462 17.2254C29.4799 18.7917 28.6172 20.8744 28.6172 23.0897C28.6172 25.305 29.4799 27.3876 31.0462 28.954C32.6125 30.5203 34.6951 31.383 36.9105 31.383C39.1257 31.383 41.2082 30.5203 42.7746 28.954C46.0081 25.7202 46.0081 20.459 42.7746 17.2254ZM40.8725 27.0519C39.8142 28.1102 38.4071 28.6931 36.9104 28.6931C35.4136 28.6931 34.0065 28.1102 32.9483 27.0519C31.8898 25.9936 31.3071 24.5865 31.3071 23.0897C31.3071 21.5929 31.8898 20.1859 32.9483 19.1276C34.0065 18.0693 35.4136 17.4864 36.9104 17.4864C38.407 17.4864 39.8142 18.0693 40.8725 19.1276C43.0571 21.3123 43.0571 24.8672 40.8725 27.0519Z" fill="#0E398C"/>
<path d="M12 36.5C12.6667 35 14 31.8 14 31L28.5 46L23 48L12 36.5Z" fill="#0FA0D9"/>
<path d="M47 4L42 5L55 18.5L56 10.5L55 4.5L47 4Z" fill="#0FA0D9"/>
<path d="M57.0626 3.89001C56.9383 3.42516 56.5753 3.06225 56.1104 2.93789C51.5112 1.70839 46.6424 1.68816 42.0308 2.87927C41.312 3.06499 40.6034 3.28319 39.9042 3.52579C39.8437 3.5423 39.7841 3.56309 39.7259 3.58813C35.8859 4.95085 32.3735 7.1585 29.4629 10.0608C29.4612 10.0624 29.4595 10.0641 29.458 10.0656C29.4505 10.0732 29.4427 10.0803 29.4351 10.0878C29.4228 10.1002 29.4122 10.1135 29.4005 10.1261C29.3892 10.1383 29.3771 10.1495 29.366 10.1623L25.2465 14.9568C18.766 14.8853 12.468 17.4459 7.87603 22.0378C6.38294 23.5309 5.0946 25.2043 4.04688 27.0114C3.83546 27.376 3.80724 27.8187 3.97065 28.2073C4.13406 28.596 4.47017 28.8854 4.87858 28.9892L12.3541 30.8923L10.8914 34.8646C10.1691 36.8265 10.6576 39.0492 12.1358 40.5274L19.4733 47.8649C20.498 48.8895 21.8801 49.4387 23.2854 49.4387C23.9075 49.4387 24.5342 49.3309 25.1363 49.1093L29.109 47.6466L31.0124 55.1225C31.1161 55.5309 31.4058 55.8671 31.7943 56.0305C31.9614 56.1008 32.1388 56.1355 32.3156 56.1355C32.5494 56.1355 32.7825 56.0746 32.9902 55.9541C34.797 54.9065 36.4702 53.6182 37.9637 52.1249C42.556 47.5327 45.1154 41.2337 45.0446 34.7535L49.8386 30.6344C49.8511 30.6236 49.862 30.6117 49.8741 30.6006C49.8871 30.5886 49.9007 30.5777 49.9133 30.5652C49.921 30.5576 49.9281 30.5496 49.9357 30.5422C49.9371 30.5405 49.9388 30.5391 49.9403 30.5375C52.8426 27.627 55.0503 24.1148 56.413 20.2749C56.4377 20.2164 56.4587 20.1566 56.4752 20.0957C56.7178 19.3968 56.936 18.6883 57.1216 17.9696C58.3124 13.3581 58.2921 8.48939 57.0626 3.89001ZM7.34348 26.8412C8.0646 25.8098 8.87956 24.8385 9.77808 23.9399C13.2956 20.4223 17.9395 18.2484 22.8429 17.7543L13.655 28.4479L7.34348 26.8412ZM13.4153 35.7941L14.6671 32.3946L16.402 34.1295L13.7797 38.3261C13.2462 37.6056 13.1002 36.6502 13.4153 35.7941ZM15.7158 40.3038L18.3541 36.0815L20.1857 37.9129L16.7553 41.3432L15.7158 40.3038ZM18.6572 43.2452L22.0876 39.815L23.919 41.6464L19.6967 44.2847L18.6572 43.2452ZM24.2064 46.5852C23.3502 46.9002 22.395 46.7543 21.6745 46.2208L25.871 43.5985L27.6059 45.3334L24.2064 46.5852ZM36.0613 50.2231C35.1626 51.1216 34.1913 51.9364 33.16 52.6577L31.5529 46.3456L42.2468 37.1572C41.7531 42.0606 39.5787 46.7052 36.0613 50.2231ZM48.0391 28.634L30.113 44.0363L15.9643 29.8877L26.845 17.224C26.8556 17.2123 26.8657 17.2 26.876 17.1879L31.3665 11.9615C33.814 9.52212 36.732 7.6274 39.92 6.38543L53.615 20.0805C52.3733 23.2686 50.4786 26.1866 48.0391 28.634ZM54.5401 17.2015L42.7993 5.46044C46.6808 4.47419 50.7606 4.43558 54.6548 5.3457C55.5649 9.23971 55.5264 13.3197 54.5401 17.2015Z" fill="#0E398C"/>
</svg>
