<svg width="17" height="22" viewBox="0 0 17 22" fill="none" xmlns="http://www.w3.org/2000/svg">
<path d="M0.846191 5.1192H15.8462V9.95248H0.846191V5.1192Z" stroke="white" stroke-linecap="round" stroke-linejoin="round"/>
<path d="M6.06358 21L6.06358 5.1192L10.6288 5.1192L10.6288 21H6.06358Z" stroke="white" stroke-linecap="round" stroke-linejoin="round"/>
<path d="M1.49837 9.95248H15.194V21H1.49837V9.95248Z" stroke="white" stroke-linecap="round" stroke-linejoin="round"/>
<path d="M8.46179 5.07376C8.46179 5.07376 11.3966 5.0737 13.1872 4.91647C13.8234 3.28463 12.8339 0.931722 11.0523 1.00152C9.27059 1.07131 8.46179 5.07376 8.46179 5.07376Z" stroke="white" stroke-linecap="round" stroke-linejoin="round"/>
<path d="M8.47094 5.07377C8.47094 5.07377 5.53616 5.07371 3.74553 4.91648C3.10928 3.28465 4.0988 0.931733 5.88047 1.00153C7.66214 1.07132 8.47094 5.07377 8.47094 5.07377Z" stroke="white" stroke-linecap="round" stroke-linejoin="round"/>
</svg>
