<svg width="13" height="16" viewBox="0 0 13 16" fill="none" xmlns="http://www.w3.org/2000/svg">
<path d="M6.78 1C3.58872 1 1 3.58898 1 6.775C1 10.15 4.29787 13.3946 6.66844 15.406C6.69938 15.4326 6.739 15.4472 6.78 15.4472C6.821 15.4472 6.86062 15.4326 6.89156 15.406C9.26218 13.3945 12.56 10.1499 12.56 6.775C12.56 3.58908 9.97128 1 6.78 1ZM6.78 1.336C9.78536 1.336 12.22 3.76855 12.22 6.775C12.22 9.88292 9.1193 13.0486 6.78 15.049C4.44057 13.0486 1.34 9.88282 1.34 6.775C1.34 3.76866 3.77464 1.336 6.78 1.336ZM6.78 3.688C5.09202 3.688 3.72 5.04388 3.72 6.712C3.72 8.38012 5.09202 9.736 6.78 9.736C8.46798 9.736 9.84 8.38012 9.84 6.712C9.84 5.04388 8.46798 3.688 6.78 3.688ZM6.78 4.024C8.28423 4.024 9.5 5.22547 9.5 6.712C9.5 8.19853 8.28423 9.4 6.78 9.4C5.27577 9.4 4.06 8.19853 4.06 6.712C4.06 5.22547 5.27577 4.024 6.78 4.024Z" stroke="white" stroke-width="0.5"/>
</svg>
