<svg width="60" height="60" viewBox="0 0 60 60" fill="none" xmlns="http://www.w3.org/2000/svg">
<path d="M15 27L19.5 21.5H40.5L45 27V51C45 51 35.859 56.1273 29.5 56C23.5114 55.8801 15 51 15 51V27Z" fill="#0FA0D9"/>
<path fill-rule="evenodd" clip-rule="evenodd" d="M30.5754 4.50216C24.7627 4.42503 19.112 6.41723 14.633 10.1228C11.1154 13.0329 8.50052 16.8508 7.04922 21.1284L8.48288 20.0133C9.02781 19.5895 9.81316 19.6876 10.237 20.2326C10.6608 20.7775 10.5627 21.5629 10.0177 21.9867L5.51773 25.4867C5.21572 25.7216 4.82277 25.8052 4.45128 25.7137C4.07979 25.6222 3.77067 25.3656 3.61235 25.0173L1.11235 19.5173C0.826676 18.8888 1.10458 18.1477 1.73305 17.862C2.36153 17.5764 3.10259 17.8543 3.38826 18.4827L4.49108 20.9089C6.04595 15.9586 9.00358 11.5354 13.0394 8.19654C17.9755 4.11287 24.2028 1.91738 30.6086 2.00238C37.0143 2.08738 43.1812 4.44734 48.0072 8.66055C52.8332 12.8738 56.0038 18.6657 56.9526 25.0014L54.4801 25.3716C53.6192 19.6226 50.7422 14.3669 46.363 10.5438C41.9839 6.72073 36.388 4.57929 30.5754 4.50216ZM29.6271 54.9978C34.7798 55.0662 39.8052 53.5085 44 50.5726V28.25H15.5V50.2835C19.5914 53.2725 24.5258 54.9301 29.6271 54.9978ZM16.6044 25.75L19.7493 22.25H39.7507L42.8956 25.75H16.6044ZM46.5 26.5V48.5671C49.5498 45.774 51.833 42.263 53.1533 38.3716L51.7196 39.4867C51.1747 39.9105 50.3894 39.8124 49.9655 39.2674C49.5417 38.7225 49.6398 37.9371 50.1848 37.5133L54.6848 34.0133C54.9868 33.7784 55.3797 33.6948 55.7512 33.7863C56.1227 33.8778 56.4318 34.1344 56.5902 34.4827L59.0902 39.9827C59.3758 40.6112 59.0979 41.3523 58.4695 41.638C57.841 41.9236 57.0999 41.6457 56.8143 41.0173L55.7114 38.5911C54.1566 43.5414 51.1989 47.9646 47.1631 51.3035C42.2271 55.3871 35.9997 57.5826 29.594 57.4976C23.1882 57.4126 17.0213 55.0527 12.1953 50.8395C7.36935 46.6262 4.1987 40.8343 3.24994 34.4986L5.72237 34.1284C6.527 39.5016 9.09278 44.4438 13 48.1882V26.5V26.0209L13.3202 25.6645L18.2622 20.1645L18.6347 19.75H19.192H40.308H40.8653L41.2378 20.1645L46.1798 25.6645L46.5 26.0209V26.5ZM21.25 36.75C21.25 36.0596 21.8096 35.5 22.5 35.5H37C37.6904 35.5 38.25 36.0596 38.25 36.75C38.25 37.4404 37.6904 38 37 38H22.5C21.8096 38 21.25 37.4404 21.25 36.75ZM24.5 40.5C23.8096 40.5 23.25 41.0596 23.25 41.75C23.25 42.4404 23.8096 43 24.5 43H35C35.6904 43 36.25 42.4404 36.25 41.75C36.25 41.0596 35.6904 40.5 35 40.5H24.5Z" fill="#0E398C"/>
</svg>
