<svg width="16" height="14" viewBox="0 0 16 14" fill="none" xmlns="http://www.w3.org/2000/svg">
<path d="M15.868 1.10698C15.7112 0.915685 15.4513 0.844745 15.2203 0.929873L0.543491 6.24408C0.250278 6.35086 0.0444679 6.60979 0.00625993 6.91984C-0.0315819 7.22843 0.10416 7.52784 0.358799 7.70017L2.4567 9.13511C2.65995 9.27417 2.9213 9.28909 3.13895 9.174L7.68973 6.76952L4.14298 9.42302C3.97648 9.54766 3.87699 9.74641 3.87699 9.95458V12.4125C3.87699 12.666 4.01578 12.8983 4.23917 13.0189C4.46293 13.1395 4.73319 13.1275 4.94571 12.9871L6.53959 11.9278L8.10697 12.9986C8.2443 13.0929 8.40787 13.1426 8.57291 13.1426C8.6287 13.1426 8.68473 13.1368 8.7399 13.1253C8.96 13.0793 9.1547 12.9431 9.27421 12.7515L15.9145 1.78066C16.0437 1.56943 16.0252 1.29912 15.868 1.10698Z" fill="#7A8496"/>
</svg>
