<svg width="17" height="17" viewBox="0 0 17 17" fill="none" xmlns="http://www.w3.org/2000/svg">
<g clip-path="url(#clip0)">
<path d="M17 3.22939C16.3743 3.50663 15.7029 3.69466 14.9975 3.77861C15.7178 3.3473 16.2691 2.66319 16.5304 1.85053C15.8548 2.24994 15.1091 2.53997 14.3145 2.69719C13.6781 2.01839 12.7731 1.59558 11.7692 1.59558C9.84323 1.59558 8.28164 3.15716 8.28164 5.08205C8.28164 5.35505 8.31245 5.62169 8.37195 5.87666C5.474 5.7311 2.90431 4.34269 1.18445 2.23294C0.883806 2.74711 0.712778 3.34622 0.712778 3.98575C0.712778 5.19572 1.32892 6.26333 2.26375 6.88794C1.69222 6.86883 1.1547 6.7116 0.684112 6.45027V6.49383C0.684112 8.18288 1.88664 9.59254 3.48114 9.91338C3.189 9.99199 2.88095 10.0355 2.56225 10.0355C2.33706 10.0355 2.11928 10.0132 1.90575 9.97074C2.34978 11.357 3.63731 12.3652 5.16278 12.3928C3.96981 13.3276 2.46559 13.8832 0.831778 13.8832C0.550278 13.8832 0.273 13.8662 0 13.8354C1.54353 14.8265 3.376 15.4044 5.3455 15.4044C11.7607 15.4044 15.2674 10.0908 15.2674 5.48255L15.2557 5.03108C15.9409 4.54238 16.5336 3.92838 17 3.22939Z" stroke="white" stroke-linecap="round" stroke-linejoin="round"/>
</g>
<defs>
<clipPath id="clip0">
<rect width="17" height="17" fill="white"/>
</clipPath>
</defs>
</svg>
