<svg width="15" height="15" viewBox="0 0 15 15" fill="none" xmlns="http://www.w3.org/2000/svg">
<path d="M12.0957 1H2.9043C1.85312 1 1 1.85312 1 2.9043V12.0957C1 13.1469 1.85312 14 2.9043 14H12.0957C13.1469 14 14 13.1469 14 12.0957V2.9043C14 1.85312 13.1469 1 12.0957 1ZM7.5 10.9531C5.61096 10.9531 4.07227 9.41443 4.07227 7.52539C4.07227 5.6363 5.61096 4.09766 7.5 4.09766C9.38904 4.09766 10.9277 5.6363 10.9277 7.52539C10.9277 9.41443 9.38904 10.9531 7.5 10.9531ZM11.6895 4.09766C11.2705 4.09766 10.9277 3.75488 10.9277 3.33594C10.9277 2.91699 11.2705 2.57422 11.6895 2.57422C12.1084 2.57422 12.4512 2.91699 12.4512 3.33594C12.4512 3.75488 12.1084 4.09766 11.6895 4.09766Z" stroke="white" stroke-linecap="round" stroke-linejoin="round"/>
</svg>
