<svg width="55" height="55" viewBox="0 0 55 55" fill="none" xmlns="http://www.w3.org/2000/svg">
<path d="M54.983 24.3315V24.3311C54.8932 23.4734 54.4493 22.6829 53.7653 22.1591L50.6349 19.7196L51.8115 15.8335C52.0625 15.0043 51.9584 14.0983 51.5258 13.3473C51.0927 12.5967 50.3609 12.0536 49.5179 11.8562L45.5798 10.9359L45.0771 6.91959C44.9692 6.05937 44.506 5.27391 43.8061 4.76567C43.1053 4.25534 42.2153 4.05666 41.3656 4.22048L37.3939 4.98283L35.3021 1.518C34.4696 0.139045 32.7214 -0.381792 31.2368 0.305377C31.1323 0.35368 31.0316 0.411644 30.9439 0.473809L27.4968 2.87722L24.178 0.563275C23.4676 0.0684797 22.5751 -0.111713 21.7283 0.0680596C20.8815 0.247833 20.1388 0.77707 19.691 1.51884L17.6001 4.98325L13.628 4.22048C12.7774 4.0575 11.8882 4.25618 11.1887 4.76525C10.488 5.27475 10.0247 6.06021 9.91728 6.91959L9.41458 10.9363L5.24945 11.9095L5.05391 11.9734L4.98174 12.0049C3.46859 12.6673 2.7116 14.2777 3.18241 15.8335L4.3586 19.7196L1.09397 22.2616L0.904726 22.4263L0.851435 22.4846C-0.244188 23.6826 -0.286989 25.4946 0.749468 26.7059L3.30536 29.7654L1.23371 33.5285L1.15104 33.7167L1.12712 33.7868C0.610574 35.3321 1.31427 37.0114 2.76363 37.6922L6.42438 39.4118L6.08155 43.445C6.00812 44.309 6.2985 45.1738 6.87757 45.8173C7.45664 46.4612 8.28539 46.8405 9.15148 46.8581L13.1945 46.9388L14.5205 50.7623C14.8042 51.5814 15.4206 52.2534 16.2111 52.6054C17.0017 52.9578 17.9127 52.9671 18.7116 52.6306L22.4383 51.0584L25.3634 54.183L25.5166 54.3196L25.5758 54.3637C26.1536 54.7908 26.8287 55 27.4976 55C28.344 55 29.1799 54.6648 29.7912 54.0117L32.5565 51.0584L36.2836 52.631C37.0808 52.9671 37.9914 52.9578 38.782 52.6058C39.5734 52.2534 40.1898 51.5814 40.4735 50.7627L41.7999 46.9388L46.0766 46.8535L46.2797 46.8313L46.3527 46.8166C47.9473 46.491 49.0479 45.0415 48.9124 43.4454L48.57 39.4118L52.2311 37.6922C53.0146 37.3243 53.6176 36.6405 53.8853 35.816C54.1526 34.9919 54.0666 34.0838 53.6486 33.3248L51.689 29.7654L54.2453 26.7059C54.8038 26.0528 55.0728 25.1884 54.983 24.3315ZM48.6405 28.3819C48.134 28.9804 48.0476 29.841 48.4265 30.5286L50.7818 34.8071L46.3636 36.8824C45.6473 37.2193 45.2114 37.9758 45.2781 38.765L45.6914 43.6323L40.8121 43.7298C40.0211 43.7457 39.3149 44.259 39.0556 45.0075L37.4551 49.6224L32.9585 47.7251C32.2292 47.4176 31.3757 47.5987 30.834 48.177L27.4968 51.7414L24.1595 48.1766C23.7941 47.786 23.2859 47.5768 22.7698 47.5768C22.5218 47.5768 22.2721 47.6251 22.0359 47.7251L17.5384 49.6224L15.9384 45.0087C15.6795 44.2598 14.9733 43.7457 14.1814 43.7298L9.3017 43.6323L9.71503 38.765C9.78217 37.9758 9.34576 37.2193 8.62948 36.8824L4.21174 34.8071L6.56705 30.5291C6.94639 29.8406 6.85953 28.9804 6.35263 28.3814L3.25249 24.6705L7.05087 21.7126C7.67275 21.2325 7.93711 20.4076 7.70883 19.6557L6.29388 14.9808L11.0469 13.8694C11.8169 13.6892 12.4006 13.0407 12.4996 12.2544L13.1064 7.40724L17.9001 8.32753C18.6772 8.47622 19.4737 8.12087 19.8832 7.44337L22.4068 3.26239L26.4112 6.05391C27.0608 6.5067 27.9336 6.50712 28.5827 6.05391L32.5871 3.26197L35.1112 7.44211C35.5199 8.12045 36.318 8.47622 37.0951 8.32711L41.888 7.40682L42.4948 12.2535C42.5929 13.0394 43.1766 13.6888 43.9479 13.8694L48.7005 14.9804L47.2851 19.6553C47.0573 20.4089 47.322 21.2334 47.9439 21.713L51.7406 24.6722L48.6405 28.3819Z" fill="#0E398C"/>
<circle cx="27.5" cy="27.5" r="11.5" fill="#0FA0D9"/>
<path d="M27.668 13.7803C20.1161 13.7803 13.972 19.9239 13.972 27.4762C13.972 35.0281 20.1161 41.1721 27.668 41.1721C35.2202 41.1721 41.3643 35.0281 41.3643 27.4762C41.3643 19.9239 35.2198 13.7803 27.668 13.7803ZM27.668 37.9469C21.8944 37.9469 17.1968 33.2497 17.1968 27.4762C17.1968 21.7022 21.8944 17.005 27.668 17.005C33.4419 17.005 38.1391 21.7022 38.1391 27.4762C38.1391 33.2497 33.4419 37.9469 27.668 37.9469Z" fill="#0E398C"/>
<path d="M31.6048 23.2237L25.2429 29.5851L23.5166 27.8584C22.8868 27.229 21.8659 27.229 21.2364 27.8584C20.6066 28.4883 20.6066 29.5092 21.2364 30.139L24.1028 33.0054C24.4175 33.3206 24.8305 33.4779 25.2429 33.4779C25.6554 33.4779 26.0683 33.3206 26.383 33.0054L33.885 25.5039C34.5144 24.8741 34.5144 23.8532 33.885 23.2237C33.2551 22.5939 32.2342 22.5939 31.6048 23.2237Z" fill="#0E398C"/>
</svg>
