<svg width="17" height="17" viewBox="0 0 17 17" fill="none" xmlns="http://www.w3.org/2000/svg">
<path d="M6.79004 15.2644V16.9904L6.3737 16.6532C6.30937 16.6011 4.77879 15.3554 3.22667 13.5691C1.08559 11.1049 0 8.89291 0 6.99479V6.80666C0 3.05345 3.046 0 6.79004 0C10.5341 0 13.5801 3.05345 13.5801 6.80666V6.99479C13.5801 7.15419 13.5716 7.31606 13.5563 7.47989L12.2285 6.26553C11.9565 3.49772 9.62138 1.32812 6.79004 1.32812C3.7766 1.32812 1.32488 3.78584 1.32488 6.80666V6.99479C1.32488 10.2023 5.44752 14.0853 6.79004 15.2644ZM10.864 14.3105H12.8513V12.3183H10.864V14.3105ZM6.79004 3.98438C8.34241 3.98438 9.60543 5.25048 9.60543 6.80666C9.60543 8.36283 8.34241 9.62894 6.79004 9.62894C5.23766 9.62894 3.97465 8.36283 3.97465 6.80666C3.97465 5.25048 5.23766 3.98438 6.79004 3.98438ZM6.79004 5.3125C5.96813 5.3125 5.29953 5.98274 5.29953 6.80666C5.29953 7.63045 5.96813 8.30081 6.79004 8.30081C7.61182 8.30081 8.28055 7.63045 8.28055 6.80666C8.28055 5.98274 7.61182 5.3125 6.79004 5.3125ZM16.1071 13.408L15.7346 13.0674V15.1995C15.7346 16.1923 14.9288 17 13.9384 17H9.74382C8.75343 17 7.94761 16.1923 7.94761 15.1995V13.0674L7.57511 13.408L6.68226 12.4269L11.8411 7.70898L17 12.4269L16.1071 13.408ZM14.4098 11.8557L11.8411 9.50672L9.27249 11.8557V15.1994C9.27249 15.4599 9.4839 15.6719 9.74382 15.6719H13.9384C14.1984 15.6719 14.4098 15.4599 14.4098 15.1994V11.8557Z" fill="#7A8496"/>
</svg>
