<svg width="18" height="13" viewBox="0 0 18 13" fill="none" xmlns="http://www.w3.org/2000/svg">
<path d="M1.18605 1C1.13671 1.00001 1.08939 1.01999 1.0545 1.05555C1.01961 1.09112 1 1.13936 1 1.18966L1 11.8103C1 11.8606 1.01961 11.9089 1.0545 11.9445C1.08939 11.98 1.13671 12 1.18605 12H16.814C16.8633 12 16.9106 11.98 16.9455 11.9445C16.9804 11.9089 17 11.8606 17 11.8103V1.18966C17 1.13936 16.9804 1.09112 16.9455 1.05555C16.9106 1.01999 16.8633 1.00001 16.814 1L1.18605 1V1ZM1.6686 1.37931L16.3314 1.37931L9 8.14169L1.6686 1.37931ZM1.37209 1.61044L6.45349 6.29849L1.37209 11.3599L1.37209 1.61044ZM16.6279 1.61044V11.3599L11.5465 6.29849L16.6279 1.61044ZM6.73256 6.55333L8.87791 8.53285C8.91177 8.56287 8.95513 8.5794 9 8.5794C9.04487 8.5794 9.08823 8.56287 9.12209 8.53285L11.2674 6.55333L16.3663 11.6207H1.63372L6.73256 6.55333V6.55333Z" stroke="white" stroke-width="0.5"/>
</svg>
