<svg width="27" height="10" viewBox="0 0 27 10" fill="none" xmlns="http://www.w3.org/2000/svg">
<path d="M25 5L25.6918 5.72205L26.4454 5L25.6918 4.27795L25 5ZM20.1335 8.27795C19.7347 8.66004 19.7212 9.29306 20.1033 9.69184C20.4854 10.0906 21.1184 10.1041 21.5172 9.72205L20.1335 8.27795ZM-1.31134e-07 6L25 6L25 4L-2.18557e-07 4L-1.31134e-07 6ZM25.6918 4.27795L21.5172 0.277951L20.1335 1.72205L24.3082 5.72205L25.6918 4.27795ZM24.3082 4.27795L20.1335 8.27795L21.5172 9.72205L25.6918 5.72205L24.3082 4.27795Z" fill="white"/>
</svg>
