<svg width="14" height="14" viewBox="0 0 14 14" fill="none" xmlns="http://www.w3.org/2000/svg">
<path d="M7 0C3.15521 0 0 3.15521 0 7C0 8.26892 0.342117 9.5042 0.990891 10.5849L0 14L3.41508 13.0091C4.4958 13.6579 5.73108 14 7 14C10.8448 14 14 10.8448 14 7C14 3.15521 10.8448 0 7 0ZM11.3765 9.95772L11.0508 10.2834C10.59 10.7442 9.53036 10.7076 8.84944 10.5762C6.58536 10.1389 3.94572 7.58031 3.43666 5.36461C3.18459 4.26701 3.32376 3.31276 3.68777 2.94864L4.01344 2.62297C4.19321 2.44331 4.48523 2.44353 4.66478 2.62297L5.96767 3.92596C6.05461 4.01291 6.10225 4.12816 6.10225 4.25153C6.10225 4.37489 6.05461 4.49025 5.96767 4.57687L5.64211 4.90286C5.28322 5.2626 5.28322 5.84697 5.64211 6.20586L7.79361 8.32906C8.15356 8.68901 8.73611 8.68944 9.0966 8.32906L9.42227 8.00349C9.59039 7.83441 9.90442 7.83388 10.0739 8.00349L11.3765 9.30606C11.5534 9.48219 11.5601 9.774 11.3765 9.95772Z" fill="#7A8496"/>
</svg>
