<svg width="13" height="13" viewBox="0 0 13 13" fill="none" xmlns="http://www.w3.org/2000/svg">
<path d="M3.36835 11.7514L3.22498 11.6653L3.06439 11.7119L0.561999 12.438L1.28807 9.93561L1.33467 9.77502L1.2486 9.63165C0.682067 8.68793 0.383133 7.60909 0.383133 6.5C0.383133 3.14144 3.14144 0.383133 6.5 0.383133C9.85856 0.383133 12.6169 3.14144 12.6169 6.5C12.6169 9.85856 9.85856 12.6169 6.5 12.6169C5.39091 12.6169 4.31207 12.3179 3.36835 11.7514Z" stroke="#474747" stroke-width="0.766265"/>
<path d="M9.88463 9.39619L9.60673 9.67507C9.21352 10.0696 8.30926 10.0384 7.7282 9.92577C5.79616 9.55131 3.54366 7.36037 3.10926 5.46303C2.89415 4.52314 3.01291 3.70599 3.32354 3.39419L3.60145 3.11531C3.75485 2.96147 4.00404 2.96165 4.15726 3.11531L5.26906 4.23109C5.34326 4.30554 5.38391 4.40423 5.38391 4.50988C5.38391 4.61552 5.34326 4.7143 5.26906 4.78848L4.99125 5.06763C4.685 5.37568 4.685 5.87608 4.99125 6.1834L6.82721 8.00154C7.13438 8.30977 7.63149 8.31014 7.93911 8.00154L8.21702 7.72275C8.36048 7.57796 8.62845 7.57751 8.7731 7.72275L9.88463 8.83816C10.0356 8.98899 10.0413 9.23887 9.88463 9.39619Z" stroke="#474747" stroke-width="0.766265"/>
</svg>
