<svg width="115" height="40" viewBox="0 0 115 40" fill="none" xmlns="http://www.w3.org/2000/svg">
<g clip-path="url(#clip0)">
<path fill-rule="evenodd" clip-rule="evenodd" d="M31.8137 12.3014L28.1616 10.835L28.7297 13.4419L21.2632 15.1527L19.8835 18.4114V25.9063H31.8137V12.3014Z" fill="white"/>
<path d="M31.8137 26.3951H12.1736V38.2078H31.8137V26.3951Z" fill="white"/>
<path d="M11.7678 18.8187H0V38.1263H11.7678V18.8187Z" fill="white"/>
<path fill-rule="evenodd" clip-rule="evenodd" d="M19.3966 18.4929L20.8574 14.9898L19.1531 7.5764L15.9068 6.19147L0 12.3014V18.4929H19.3966Z" fill="white"/>
<path d="M26.8071 6.06544L19.5909 7.64154L21.1611 14.8852L28.3773 13.3091L26.8071 6.06544Z" fill="white"/>
<path d="M115 14.501H109.644V19.8778H115V14.501Z" fill="white"/>
<path d="M105.225 15.1218L104.376 19.0219L108.261 19.8737L109.11 15.9737L105.225 15.1218Z" fill="white"/>
<path d="M103.72 14.4448L101.385 14.7424L101.682 17.0861L104.016 16.7884L103.72 14.4448Z" fill="white"/>
<path d="M25.4565 -0.0188649L24.525 3.61017L28.1403 4.54516L29.0717 0.916125L25.4565 -0.0188649Z" fill="white"/>
<path d="M30.8622 4.89688L29.1619 5.66998L29.932 7.37676L31.6323 6.60366L30.8622 4.89688Z" fill="white"/>
<path fill-rule="evenodd" clip-rule="evenodd" d="M53.5638 15.6415L50.7233 19.5519H43.0134V23.2179L39.7671 25.0916V12.2199H51.1291L53.5638 15.6415ZM50.2364 15.8045L49.3437 14.6639H43.0134V17.0265H49.3437L50.2364 15.8045ZM57.2971 23.1364L54.0508 25.0102V12.2199H57.2971V23.1364ZM74.3401 23.1364H70.4446L66.9548 19.6334L63.465 23.1364H59.5695L65.007 17.6782L59.6506 12.2199H63.5462L67.036 15.723L70.5257 12.2199H74.4213L68.9837 17.6782L74.3401 23.1364ZM88.9485 12.2199L86.5137 14.6639H79.2096V16.6191H87.3253L85.1341 18.8187H79.2096V20.6924H88.5427L86.108 23.1364H75.9633V12.2199H88.9485ZM102.826 20.6924L100.392 23.1364H90.247V12.3014L93.4933 10.4277V20.7739H102.826V20.6924Z" fill="white"/>
<path fill-rule="evenodd" clip-rule="evenodd" d="M52.8334 38.1263H49.5872V33.8086H43.0946V38.1263L39.8483 40V27.2098H43.0946V31.609H49.5872V27.2098H52.8334V38.1263ZM68.7403 35.6823L66.3056 38.1263H57.2159L54.7812 35.6823V29.7352L57.2159 27.2913H66.2244L68.6591 29.7352V35.6823H68.7403ZM65.494 35.6823V29.6538H58.1087V35.6823H65.494ZM83.8356 35.6823L81.4008 38.1263H73.2039L70.7692 35.6823V25.3361L74.0155 27.2098V35.6823H80.6704V27.2098H83.9167V35.6823H83.8356ZM100.473 34.7862L98.0381 38.1263H85.4587L87.8934 35.6823H96.1715L96.9831 34.7862L96.1715 33.8086H87.8934L85.5399 30.5499L87.9746 27.2098H100.554L98.1193 29.6538H89.8412L89.0296 30.5499L89.8412 31.5275H98.1193L100.473 34.7862ZM115 27.2098L112.565 29.6538H105.261V31.609H113.377L111.186 33.8086H105.261V35.6823H114.594L112.159 38.1263H102.015V27.2098H115Z" fill="white"/>
</g>
<defs>
<clipPath id="clip0">
<rect width="115" height="40" fill="white"/>
</clipPath>
</defs>
</svg>
