<svg width="17" height="17" viewBox="0 0 17 17" fill="none" xmlns="http://www.w3.org/2000/svg">
<path d="M15.7042 13.2347L13.3372 10.8279C13.1527 10.6409 12.8957 10.5382 12.6137 10.5382C12.3172 10.5382 12.0307 10.6551 11.8282 10.8615L10.5487 12.1629L10.2032 11.9683C9.44275 11.5389 8.40124 10.9519 7.30074 9.83237C6.19624 8.71079 5.61775 7.64918 5.19475 6.87317L5.00575 6.53218L6.28774 5.22967C6.71174 4.79771 6.72575 4.11065 6.31925 3.69545L3.95175 1.2907C3.76725 1.10317 3.51025 1 3.22925 1C2.93175 1 2.64575 1.1179 2.44325 1.32423L1.86225 1.91882L1.80774 2.00978C1.59174 2.29284 1.41475 2.60944 1.28175 2.954C1.15875 3.2828 1.08225 3.59687 1.04675 3.91042C0.741747 6.48898 1.91125 8.85563 5.08475 12.0811C8.84675 15.9032 11.9897 16.2 12.8637 16.2C13.0132 16.2 13.1037 16.1919 13.1292 16.1893C13.4522 16.1492 13.7612 16.0709 14.0732 15.9474C14.4097 15.8133 14.7207 15.6359 14.9967 15.4149L15.1297 15.3091L15.6733 14.7674C16.0973 14.3354 16.1102 13.6484 15.7042 13.2347ZM15.3797 14.4686L14.9602 14.8899C14.7622 15.083 14.4213 15.3549 13.9233 15.5536C13.6418 15.6639 13.3667 15.734 13.0822 15.7685C13.0662 15.7701 13.0022 15.7746 12.8977 15.7746C12.0557 15.7746 9.02525 15.4875 5.37875 11.7818C1.78875 8.13348 1.21475 6.01585 1.45925 3.95819C1.49075 3.67767 1.55924 3.39766 1.66824 3.10443C1.86524 2.59268 2.13375 2.24659 2.32325 2.04687L2.73575 1.62203C2.86325 1.49244 3.04325 1.41824 3.22975 1.41824C3.39825 1.41824 3.55125 1.47872 3.65825 1.58798L6.02574 3.99325C6.27024 4.24227 6.25575 4.66305 5.99375 4.93087L4.51524 6.43257L4.48525 6.46408L4.56725 6.60485C4.64975 6.74562 4.73675 6.9062 4.83125 7.0795C5.26675 7.87685 5.86275 8.96845 7.00675 10.1312C8.15275 11.296 9.22274 11.8987 10.0052 12.3388C10.1827 12.4389 10.3372 12.5258 10.4752 12.6096L10.6142 12.693L12.1217 11.1608C12.2482 11.0322 12.4272 10.9585 12.6137 10.9585C12.7837 10.9585 12.9367 11.019 13.0442 11.1288L15.4102 13.5325C15.6547 13.782 15.6402 14.2023 15.3797 14.4686Z" stroke="white" stroke-width="0.5"/>
</svg>
