<svg width="16" height="16" viewBox="0 0 16 16" fill="none" xmlns="http://www.w3.org/2000/svg">
<path d="M15.6843 12.8786L13.1595 10.3452C12.9627 10.1483 12.6886 10.0403 12.3878 10.0403C12.0716 10.0403 11.766 10.1633 11.55 10.3805L10.1852 11.7505L9.81666 11.5456C9.00547 11.0936 7.89455 10.4757 6.7207 9.29723C5.54258 8.11662 4.92553 6.99913 4.47433 6.18228L4.27273 5.82335L5.64018 4.45229C6.09244 3.99759 6.10737 3.27436 5.67378 2.83732L3.14848 0.305996C2.95169 0.108604 2.67756 0 2.37783 0C2.0605 0 1.75544 0.124106 1.53944 0.341291L0.919715 0.967175L0.861582 1.06292C0.631185 1.36088 0.442391 1.69415 0.300526 2.05684C0.169328 2.40294 0.0877286 2.73354 0.0498625 3.0636C-0.275466 5.77788 0.971984 8.26908 4.357 11.6643C8.36974 15.6876 11.7222 16 12.6545 16C12.8139 16 12.9105 15.9914 12.9377 15.9888C13.2822 15.9465 13.6118 15.8641 13.9446 15.7341C14.3035 15.5929 14.6352 15.4062 14.9296 15.1735L15.0715 15.0623L15.6512 14.492C16.1035 14.0373 16.1174 13.3141 15.6843 12.8786ZM15.3382 14.1775L14.8907 14.6209C14.6795 14.8242 14.3158 15.1104 13.7846 15.3196C13.4843 15.4356 13.191 15.5095 12.8875 15.5458C12.8705 15.5474 12.8022 15.5523 12.6907 15.5523C11.7926 15.5523 8.56014 15.25 4.6706 11.3492C0.841318 7.50893 0.229058 5.27985 0.489854 3.11388C0.523454 2.8186 0.596519 2.52385 0.712784 2.21519C0.922914 1.67651 1.20931 1.3122 1.41144 1.10197L1.85144 0.654764C1.98743 0.518354 2.17943 0.440253 2.37836 0.440253C2.55809 0.440253 2.72129 0.503919 2.83542 0.61893L5.36071 3.15079C5.62151 3.41291 5.60605 3.85584 5.32658 4.13775L3.74954 5.71849L3.71754 5.75166L3.80501 5.89984C3.89301 6.04802 3.98581 6.21706 4.0866 6.39947L4.08719 6.40053C4.55166 7.23975 5.18736 8.38835 6.4071 9.61178C7.62948 10.8379 8.7708 11.4723 9.60545 11.9355C9.61269 11.9396 9.61988 11.9436 9.62705 11.9476C9.80735 12.0479 9.96521 12.1358 10.1068 12.2207L10.255 12.3084L11.863 10.6956C11.998 10.5602 12.1889 10.4827 12.3878 10.4827C12.5691 10.4827 12.7323 10.5463 12.847 10.6619L15.3707 13.1921C15.6315 13.4548 15.616 13.8972 15.3382 14.1775Z" fill="#0E398C"/>
<path d="M15.3382 14.1775L14.8907 14.6209C14.6795 14.8242 14.3158 15.1104 13.7846 15.3196C13.4843 15.4356 13.191 15.5095 12.8875 15.5458C12.8705 15.5474 12.8022 15.5523 12.6907 15.5523C11.7926 15.5523 8.56014 15.25 4.6706 11.3492C0.841318 7.50893 0.229058 5.27985 0.489854 3.11388C0.523454 2.8186 0.596519 2.52385 0.712784 2.21519C0.922914 1.67651 1.20931 1.3122 1.41144 1.10197L1.85144 0.654764C1.98743 0.518354 2.17943 0.440253 2.37836 0.440253C2.55809 0.440253 2.72129 0.503919 2.83542 0.61893L5.36071 3.15079C5.62151 3.41291 5.60605 3.85584 5.32658 4.13775L3.74954 5.71849L3.71754 5.75166L3.80501 5.89984C3.89301 6.04802 3.98581 6.21706 4.0866 6.39947L4.08719 6.40053C4.55166 7.23975 5.18736 8.38835 6.4071 9.61178C7.62948 10.8379 8.7708 11.4723 9.60545 11.9355L9.62705 11.9476C9.80735 12.0479 9.96521 12.1358 10.1068 12.2207L10.255 12.3084L11.863 10.6956C11.998 10.5602 12.1889 10.4827 12.3878 10.4827C12.5691 10.4827 12.7323 10.5463 12.847 10.6619L15.3707 13.1921C15.6315 13.4548 15.616 13.8972 15.3382 14.1775Z" fill="#0E398C"/>
</svg>
