<svg width="10" height="17" viewBox="0 0 10 17" fill="none" xmlns="http://www.w3.org/2000/svg">
<path d="M8.69874 1.00312L6.77991 1C4.62416 1 3.23102 2.44892 3.23102 4.69152V6.39356H1.30172C1.135 6.39356 1 6.53057 1 6.69957V9.16563C1 9.33463 1.13516 9.47149 1.30172 9.47149H3.23102V15.6941C3.23102 15.8631 3.36603 16 3.53274 16H6.04993C6.21665 16 6.35165 15.863 6.35165 15.6941V9.47149H8.60746C8.77417 9.47149 8.90918 9.33463 8.90918 9.16563L8.9101 6.69957C8.9101 6.61843 8.87824 6.54071 8.82174 6.48329C8.76525 6.42586 8.68828 6.39356 8.60823 6.39356H6.35165V4.95072C6.35165 4.25723 6.51467 3.90518 7.40582 3.90518L8.69844 3.90472C8.865 3.90472 9 3.7677 9 3.59886V1.30898C9 1.14029 8.86515 1.00343 8.69874 1.00312Z" stroke="white" stroke-linecap="round" stroke-linejoin="round"/>
</svg>
