<svg width="24" height="14" viewBox="0 0 24 14" fill="none" xmlns="http://www.w3.org/2000/svg">
<path d="M22.8833 11.8373C22.8567 11.7824 22.8319 11.7369 22.8088 11.7004C22.4271 11.0432 21.6977 10.2365 20.621 9.28012L20.5982 9.25822L20.5868 9.24748L20.5753 9.23647H20.5638C20.0751 8.79113 19.7657 8.49169 19.6361 8.33838C19.399 8.04634 19.3459 7.75074 19.4754 7.45122C19.567 7.22492 19.9109 6.74701 20.5064 6.01684C20.8196 5.62987 21.0676 5.31973 21.2508 5.08607C22.572 3.40687 23.1448 2.33383 22.9691 1.86655L22.9008 1.75735C22.855 1.69161 22.7366 1.63147 22.5459 1.57662C22.3548 1.52189 22.1105 1.51284 21.8126 1.54931L18.5138 1.5711C18.4604 1.55299 18.3841 1.55468 18.2846 1.57662C18.1853 1.59856 18.1357 1.60957 18.1357 1.60957L18.0783 1.63699L18.0327 1.66994C17.9945 1.69173 17.9525 1.73004 17.9066 1.78482C17.861 1.83939 17.8229 1.90345 17.7924 1.97644C17.4332 2.8598 17.0249 3.68111 16.5666 4.44032C16.284 4.89303 16.0245 5.28536 15.7876 5.61756C15.5509 5.94964 15.3523 6.19431 15.1921 6.35115C15.0316 6.50813 14.8868 6.6339 14.7567 6.72891C14.6269 6.82395 14.5277 6.86411 14.4591 6.84942C14.3903 6.83473 14.3255 6.82016 14.2641 6.80558C14.1573 6.73984 14.0714 6.65043 14.0066 6.53728C13.9415 6.42414 13.8977 6.28172 13.8748 6.11016C13.852 5.93848 13.8385 5.79081 13.8346 5.66666C13.8311 5.54265 13.8327 5.36725 13.8405 5.14096C13.8484 4.91454 13.852 4.76135 13.852 4.68103C13.852 4.40357 13.8576 4.10244 13.869 3.77757C13.8805 3.4527 13.8899 3.1953 13.8977 3.00567C13.9055 2.81585 13.9091 2.61502 13.9091 2.4033C13.9091 2.19157 13.8956 2.02553 13.869 1.90502C13.8427 1.78466 13.8023 1.66783 13.749 1.55457C13.6955 1.44142 13.6171 1.35389 13.5142 1.29176C13.4111 1.2297 13.283 1.18045 13.1305 1.14386C12.7257 1.05629 12.2103 1.00892 11.584 1.00156C10.1637 0.986983 9.25113 1.07466 8.84641 1.26448C8.68605 1.34469 8.54094 1.45427 8.41119 1.59288C8.2737 1.75355 8.25452 1.84124 8.35378 1.85566C8.81203 1.92128 9.13643 2.07827 9.32736 2.32647L9.39617 2.45799C9.44969 2.55288 9.50313 2.72088 9.55661 2.96175C9.61001 3.20262 9.64447 3.46908 9.65963 3.76096C9.69775 4.29399 9.69775 4.75027 9.65963 5.12983C9.6214 5.50955 9.58529 5.80516 9.55083 6.01688C9.51637 6.2286 9.46485 6.40016 9.39617 6.53153C9.32736 6.66294 9.28159 6.74325 9.25864 6.7724C9.23573 6.80155 9.21663 6.81993 9.20147 6.82714C9.10221 6.8635 8.99898 6.88202 8.89214 6.88202C8.78514 6.88202 8.6554 6.83086 8.5027 6.7286C8.35005 6.62635 8.19161 6.48589 8.0274 6.307C7.86319 6.12807 7.678 5.87803 7.47175 5.55684C7.26565 5.23565 7.05181 4.85605 6.83035 4.41803L6.64713 4.10037C6.53259 3.89601 6.37612 3.59845 6.17757 3.20796C5.97889 2.8173 5.80329 2.43943 5.65063 2.0744C5.58961 1.92109 5.49794 1.80438 5.37577 1.72406L5.31844 1.69111C5.28033 1.66196 5.21915 1.63101 5.13522 1.59802C5.05117 1.56508 4.96346 1.54145 4.87175 1.52691L1.73323 1.5487C1.41251 1.5487 1.1949 1.61816 1.08032 1.75689L1.03446 1.82252C1.01155 1.85907 1 1.91745 1 1.9978C1 2.07812 1.02291 2.17669 1.06877 2.29341C1.52693 3.32287 2.02518 4.3157 2.5635 5.27205C3.10183 6.22841 3.56963 6.99878 3.96661 7.58247C4.36367 8.16659 4.7684 8.71787 5.18079 9.23605C5.59318 9.75443 5.86616 10.0866 5.99972 10.2326C6.13343 10.3788 6.23847 10.4881 6.31482 10.5611L6.60123 10.8239C6.7845 10.9991 7.05362 11.209 7.40872 11.4535C7.7639 11.6982 8.15711 11.939 8.58856 12.1765C9.02009 12.4136 9.5221 12.607 10.0949 12.7567C10.6676 12.9064 11.225 12.9665 11.7672 12.9375H13.0845C13.3517 12.9155 13.5541 12.8352 13.6917 12.6966L13.7372 12.6417C13.7679 12.5981 13.7966 12.5304 13.8231 12.4393C13.8499 12.3481 13.8632 12.2475 13.8632 12.1382C13.8554 11.8243 13.8803 11.5414 13.9375 11.2896C13.9946 11.0378 14.0596 10.848 14.1324 10.7202C14.2052 10.5925 14.2872 10.4847 14.3786 10.3973C14.4701 10.3097 14.5354 10.2567 14.5737 10.2384C14.6117 10.2201 14.6421 10.2076 14.665 10.2001C14.8482 10.1417 15.0639 10.1983 15.3123 10.37C15.5606 10.5416 15.7934 10.7534 16.0111 11.0052C16.2288 11.2572 16.4903 11.5399 16.7957 11.8537C17.1013 12.1677 17.3685 12.4011 17.5975 12.5546L17.8265 12.686C17.9794 12.7737 18.178 12.854 18.4224 12.927C18.6663 13 18.8801 13.0182 19.0636 12.9818L21.9959 12.938C22.2859 12.938 22.5116 12.8921 22.6717 12.801C22.832 12.7098 22.9273 12.6093 22.9581 12.4999C22.9887 12.3904 22.9904 12.2662 22.9639 12.1274C22.9367 11.9889 22.91 11.8921 22.8833 11.8373Z" stroke="white" stroke-linecap="round" stroke-linejoin="round"/>
</svg>
