<svg width="15" height="13" viewBox="0 0 15 13" fill="none" xmlns="http://www.w3.org/2000/svg">
<path d="M0.00586869 6.42484L0.386125 6.4717C0.404351 6.32379 0.501121 6.20225 0.640297 6.15144C0.640405 6.1514 0.640514 6.15136 0.640622 6.15132L14.3994 1.16949L14.4014 1.16875C14.4642 1.14562 14.536 1.16452 14.5799 1.2181L14.8762 0.975275L14.5797 1.2179C14.6241 1.2722 14.629 1.34808 14.593 1.40685L14.592 1.40846L8.36837 11.6911C8.31128 11.7814 8.21825 11.8459 8.1155 11.8674C8.08947 11.8728 8.06313 11.8755 8.0371 11.8755C7.95848 11.8755 7.88099 11.8517 7.81716 11.8078L7.81641 11.8073L6.34699 10.8034L6.13381 10.6578L5.91879 10.8007L4.42541 11.7932C4.42529 11.7933 4.42518 11.7934 4.42507 11.7935C4.34369 11.8471 4.24158 11.8515 4.15623 11.8056C4.0704 11.7592 4.01781 11.6708 4.01781 11.5742V9.2699C4.01781 9.19543 4.0542 9.12281 4.11356 9.07835C4.11358 9.07833 4.11361 9.07831 4.11363 9.07829L7.43864 6.59069L7.03014 5.94516L2.76378 8.19936L2.76367 8.19942C2.68547 8.24077 2.59271 8.23553 2.51951 8.18545L2.51946 8.18541L0.552674 6.84016L0.552677 6.84016L0.551114 6.8391C0.432602 6.7589 0.368022 6.61932 0.386153 6.47147L0.00586869 6.42484ZM0.00586869 6.42484C0.0416887 6.13416 0.234636 5.89142 0.509523 5.79131L14.269 0.80924L0.00586869 6.42484Z" stroke="#474747" stroke-width="0.766265"/>
</svg>
